# xmcd
#
# Track frame offsets:
#        150
#        23682
#        47200
#        61630
#        75997
#        87027
#        96147
#        102592
#        116750
#        127730
#        140385
#        150100
#        160590
#        171812
#        184520
#        194335
#
# Disc length: 2827 seconds
#
# Revision: 0
# Processed by: cddbd v1.5.1PL0 Copyright (c) Steve Scherf et al.
# Submitted via: ExactAudioCopy v0.95a5
#
DISCID=b30b0910
DTITLE=Eric Clapton - young man blues
DYEAR=1994
DGENRE=Blues
TTITLE0=23 HOURS TOO LONG
TTITLE1=FIVE LONG YEARS
TTITLE2=HIGHWAY 69
TTITLE3=OUT ON THE WATERCOAST
TTITLE4=BOOM BOOM
TTITLE5=I AIN'T GOT YOU
TTITLE6=CHOKER
TTITLE7=DRAGGIN' MY TAIL
TTITLE8=MILES LOAD
TTITLE9=FREIGHT LOADER
TTITLE10=TRIBUTE TO ELMORE
TTITLE11=WESTCOAST IDEA
TTITLE12=SNAKE DRIVE
TTITLE13=ON THE TOP OF THE WORLD
TTITLE14=I'M YOUR WITCHDOCTOR
TTITLE15=TELEPHONE BLUES
EXTD=
EXTT0=
EXTT1=
EXTT2=
EXTT3=
EXTT4=
EXTT5=
EXTT6=
EXTT7=
EXTT8=
EXTT9=
EXTT10=
EXTT11=
EXTT12=
EXTT13=
EXTT14=
EXTT15=
PLAYORDER=
